<?xml version="1.0" encoding="iso-8859-1"?>
<!-- Uploaded to: SVG Repo, www.svgrepo.com, Generator: SVG Repo Mixer Tools -->
<svg height="800px" width="800px" version="1.1" id="Layer_1" xmlns="http://www.w3.org/2000/svg" xmlns:xlink="http://www.w3.org/1999/xlink" 
	 viewBox="0 0 512 512" xml:space="preserve">
<polyline style="fill:#FCD577;" points="403.41,164.301 403.41,31.468 326.996,31.468 326.996,87.887 "/>
<polygon style="fill:#CFDCE5;" points="421.384,182.245 420.356,183.272 420.356,512 91.652,512 91.652,183.272 90.637,182.245 
	256.004,16.901 "/>
<polygon style="fill:#BAC6CC;" points="420.356,184.657 420.356,218.442 256.004,54.078 91.652,218.43 91.652,184.645 
	256.004,20.305 "/>
<polygon style="fill:#FF6F52;" points="488.44,266.218 256.001,33.778 23.561,266.218 6.67,249.329 256.001,0 505.33,249.329 "/>
<path style="fill:#BAC6CC;" d="M334.326,191.878c-15.967,52.816-45.446,45.446-111.772,79.837
	c-53.827,27.911-60.735,115.681-61.427,147.77c-13.44,9.056-27.976,17.444-43.621,24.67c-3.892,1.797-5.59,6.41-3.793,10.302
	c1.311,2.839,4.118,4.509,7.052,4.509c1.089,0,2.196-0.23,3.251-0.717c16.304-7.529,31.409-16.242,45.295-25.559
	C383.433,463.816,334.326,191.878,334.326,191.878z"/>
<path style="fill:#5AE07F;" d="M170.126,432.967c0,0-4.913-125.283,61.413-159.674c66.326-34.392,95.805-27.022,111.772-79.837
	C343.311,193.456,393.67,472.271,170.126,432.967z"/>
<path style="fill:#AF9456;" d="M309.141,309.591l-12.11,0.271c4.916-7.969,7.483-12.874,7.726-13.343
	c1.972-3.805,0.487-8.486-3.315-10.462c-3.804-1.974-8.489-0.491-10.465,3.31c-0.193,0.371-7.176,13.57-20.818,32.698v-11.909
	c0-3.297-2.673-5.971-5.971-5.971c-3.298,0-5.971,2.674-5.971,5.971v27.85c-8.65,11.007-19.004,23.075-31.042,35.32l2.068-31.067
	c0.22-3.29-2.27-6.136-5.562-6.355c-3.313-0.226-6.136,2.271-6.355,5.562l-2.951,44.313c-23.829,22.168-53.146,43.911-87.885,59.954
	c-3.892,1.797-5.59,6.41-3.793,10.302c1.311,2.839,4.118,4.509,7.052,4.509c1.089,0,2.196-0.23,3.251-0.717
	c49.897-23.043,88.645-57.128,115.205-85.932l40.85-2.845c3.29-0.229,5.771-3.082,5.543-6.371c-0.229-3.289-3.081-5.767-6.372-5.542
	l-28.718,2c0.774-0.909,1.537-1.812,2.281-2.701c11.447-13.681,20.576-26.258,27.426-36.453l20.191-0.451
	c3.297-0.074,5.91-2.806,5.837-6.103C315.171,312.132,312.443,309.527,309.141,309.591z"/>
</svg>